<mxfile host="app.diagrams.net" modified="2023-06-01T01:45:38.767Z" agent="Mozilla/5.0 (X11; Linux x86_64) AppleWebKit/537.36 (KHTML, like Gecko) Chrome/113.0.0.0 Safari/537.36" etag="Fa_JhADxXYSUktbLv1hk" version="21.3.6" type="github">
  <diagram name="Page-1" id="M21LHb_WnVeaS6wFfiAG">
    <mxGraphModel dx="1360" dy="811" grid="1" gridSize="10" guides="1" tooltips="1" connect="1" arrows="1" fold="1" page="1" pageScale="1" pageWidth="1200" pageHeight="1920" math="0" shadow="0">
      <root>
        <mxCell id="0" />
        <mxCell id="1" parent="0" />
        <mxCell id="BicWQHXOOgspfv9MOE1R-1" value="Player" style="shape=umlActor;verticalLabelPosition=bottom;verticalAlign=top;html=1;outlineConnect=0;" vertex="1" parent="1">
          <mxGeometry x="60" y="260" width="30" height="60" as="geometry" />
        </mxCell>
        <mxCell id="BicWQHXOOgspfv9MOE1R-4" value="" style="endArrow=none;html=1;rounded=0;" edge="1" parent="1">
          <mxGeometry width="50" height="50" relative="1" as="geometry">
            <mxPoint x="130" y="750" as="sourcePoint" />
            <mxPoint x="130" y="50" as="targetPoint" />
          </mxGeometry>
        </mxCell>
        <mxCell id="BicWQHXOOgspfv9MOE1R-5" value="Inicia Jogo" style="ellipse;whiteSpace=wrap;html=1;" vertex="1" parent="1">
          <mxGeometry x="160" y="250" width="120" height="80" as="geometry" />
        </mxCell>
        <mxCell id="BicWQHXOOgspfv9MOE1R-7" value="" style="endArrow=none;html=1;rounded=0;entryX=0;entryY=0.5;entryDx=0;entryDy=0;" edge="1" parent="1" source="BicWQHXOOgspfv9MOE1R-1" target="BicWQHXOOgspfv9MOE1R-5">
          <mxGeometry width="50" height="50" relative="1" as="geometry">
            <mxPoint x="140" y="290" as="sourcePoint" />
            <mxPoint x="190" y="240" as="targetPoint" />
          </mxGeometry>
        </mxCell>
        <mxCell id="BicWQHXOOgspfv9MOE1R-8" value="Jogador Atira" style="ellipse;whiteSpace=wrap;html=1;" vertex="1" parent="1">
          <mxGeometry x="250" y="150" width="120" height="80" as="geometry" />
        </mxCell>
        <mxCell id="BicWQHXOOgspfv9MOE1R-9" value="" style="endArrow=none;html=1;rounded=0;exitX=0.683;exitY=0.05;exitDx=0;exitDy=0;exitPerimeter=0;" edge="1" parent="1" source="BicWQHXOOgspfv9MOE1R-5" target="BicWQHXOOgspfv9MOE1R-8">
          <mxGeometry width="50" height="50" relative="1" as="geometry">
            <mxPoint x="330" y="450" as="sourcePoint" />
            <mxPoint x="380" y="400" as="targetPoint" />
          </mxGeometry>
        </mxCell>
        <mxCell id="BicWQHXOOgspfv9MOE1R-10" value="Inimigo morre" style="ellipse;whiteSpace=wrap;html=1;" vertex="1" parent="1">
          <mxGeometry x="620" y="140" width="120" height="80" as="geometry" />
        </mxCell>
        <mxCell id="BicWQHXOOgspfv9MOE1R-12" value="Jogo" style="text;html=1;align=center;verticalAlign=middle;resizable=0;points=[];autosize=1;strokeColor=none;fillColor=none;" vertex="1" parent="1">
          <mxGeometry x="380" y="20" width="50" height="30" as="geometry" />
        </mxCell>
        <mxCell id="BicWQHXOOgspfv9MOE1R-15" value="Jogador obtém ponto" style="ellipse;whiteSpace=wrap;html=1;" vertex="1" parent="1">
          <mxGeometry x="520" y="60" width="120" height="80" as="geometry" />
        </mxCell>
        <mxCell id="BicWQHXOOgspfv9MOE1R-16" value="" style="endArrow=none;dashed=1;html=1;dashPattern=1 3;strokeWidth=2;rounded=0;entryX=0;entryY=0.75;entryDx=0;entryDy=0;entryPerimeter=0;" edge="1" parent="1" source="BicWQHXOOgspfv9MOE1R-21" target="BicWQHXOOgspfv9MOE1R-15">
          <mxGeometry width="50" height="50" relative="1" as="geometry">
            <mxPoint x="330" y="450" as="sourcePoint" />
            <mxPoint x="380" y="400" as="targetPoint" />
          </mxGeometry>
        </mxCell>
        <mxCell id="BicWQHXOOgspfv9MOE1R-17" value="jogador passa de nível" style="ellipse;whiteSpace=wrap;html=1;" vertex="1" parent="1">
          <mxGeometry x="295" y="350" width="120" height="80" as="geometry" />
        </mxCell>
        <mxCell id="BicWQHXOOgspfv9MOE1R-18" value="" style="endArrow=none;html=1;rounded=0;entryX=0.992;entryY=0.675;entryDx=0;entryDy=0;exitX=0.075;exitY=0.213;exitDx=0;exitDy=0;exitPerimeter=0;entryPerimeter=0;" edge="1" parent="1" source="BicWQHXOOgspfv9MOE1R-17" target="BicWQHXOOgspfv9MOE1R-5">
          <mxGeometry width="50" height="50" relative="1" as="geometry">
            <mxPoint x="330" y="450" as="sourcePoint" />
            <mxPoint x="380" y="400" as="targetPoint" />
          </mxGeometry>
        </mxCell>
        <mxCell id="BicWQHXOOgspfv9MOE1R-19" value="Aumenta a velocidade do &lt;br&gt;Inimigo&lt;br&gt;" style="ellipse;whiteSpace=wrap;html=1;" vertex="1" parent="1">
          <mxGeometry x="430" y="410" width="120" height="80" as="geometry" />
        </mxCell>
        <mxCell id="BicWQHXOOgspfv9MOE1R-20" value="" style="endArrow=none;dashed=1;html=1;dashPattern=1 3;strokeWidth=2;rounded=0;entryX=0;entryY=0.5;entryDx=0;entryDy=0;exitX=1;exitY=0.5;exitDx=0;exitDy=0;" edge="1" parent="1" source="BicWQHXOOgspfv9MOE1R-17" target="BicWQHXOOgspfv9MOE1R-19">
          <mxGeometry width="50" height="50" relative="1" as="geometry">
            <mxPoint x="330" y="450" as="sourcePoint" />
            <mxPoint x="380" y="400" as="targetPoint" />
          </mxGeometry>
        </mxCell>
        <mxCell id="BicWQHXOOgspfv9MOE1R-21" value="Tiro acerta o Inimigo" style="ellipse;whiteSpace=wrap;html=1;" vertex="1" parent="1">
          <mxGeometry x="430" y="170" width="120" height="80" as="geometry" />
        </mxCell>
        <mxCell id="BicWQHXOOgspfv9MOE1R-22" value="" style="endArrow=none;html=1;rounded=0;entryX=0.025;entryY=0.3;entryDx=0;entryDy=0;exitX=1;exitY=0.5;exitDx=0;exitDy=0;entryPerimeter=0;" edge="1" parent="1" source="BicWQHXOOgspfv9MOE1R-8" target="BicWQHXOOgspfv9MOE1R-21">
          <mxGeometry width="50" height="50" relative="1" as="geometry">
            <mxPoint x="350" y="300" as="sourcePoint" />
            <mxPoint x="400" y="250" as="targetPoint" />
          </mxGeometry>
        </mxCell>
        <mxCell id="BicWQHXOOgspfv9MOE1R-23" value="" style="endArrow=none;dashed=1;html=1;dashPattern=1 3;strokeWidth=2;rounded=0;entryX=0;entryY=0.5;entryDx=0;entryDy=0;exitX=0.95;exitY=0.763;exitDx=0;exitDy=0;exitPerimeter=0;" edge="1" parent="1" source="BicWQHXOOgspfv9MOE1R-21" target="BicWQHXOOgspfv9MOE1R-10">
          <mxGeometry width="50" height="50" relative="1" as="geometry">
            <mxPoint x="470" y="340" as="sourcePoint" />
            <mxPoint x="520" y="290" as="targetPoint" />
          </mxGeometry>
        </mxCell>
        <mxCell id="BicWQHXOOgspfv9MOE1R-25" value="Tiro não acerta o Inimigo" style="ellipse;whiteSpace=wrap;html=1;" vertex="1" parent="1">
          <mxGeometry x="465" y="280" width="120" height="80" as="geometry" />
        </mxCell>
        <mxCell id="BicWQHXOOgspfv9MOE1R-26" value="" style="endArrow=none;html=1;rounded=0;entryX=0.783;entryY=0.925;entryDx=0;entryDy=0;entryPerimeter=0;" edge="1" parent="1" source="BicWQHXOOgspfv9MOE1R-25" target="BicWQHXOOgspfv9MOE1R-8">
          <mxGeometry width="50" height="50" relative="1" as="geometry">
            <mxPoint x="350" y="320" as="sourcePoint" />
            <mxPoint x="400" y="270" as="targetPoint" />
          </mxGeometry>
        </mxCell>
        <mxCell id="BicWQHXOOgspfv9MOE1R-27" value="Inimigo" style="shape=umlActor;verticalLabelPosition=bottom;verticalAlign=top;html=1;outlineConnect=0;" vertex="1" parent="1">
          <mxGeometry x="980" y="260" width="30" height="60" as="geometry" />
        </mxCell>
        <mxCell id="BicWQHXOOgspfv9MOE1R-28" value="" style="endArrow=none;html=1;rounded=0;" edge="1" parent="1">
          <mxGeometry width="50" height="50" relative="1" as="geometry">
            <mxPoint x="910" y="750" as="sourcePoint" />
            <mxPoint x="910" y="50" as="targetPoint" />
          </mxGeometry>
        </mxCell>
        <mxCell id="BicWQHXOOgspfv9MOE1R-31" value="Inimigo é inicializado" style="ellipse;whiteSpace=wrap;html=1;" vertex="1" parent="1">
          <mxGeometry x="780" y="320" width="120" height="80" as="geometry" />
        </mxCell>
        <mxCell id="BicWQHXOOgspfv9MOE1R-32" value="" style="endArrow=none;html=1;rounded=0;entryX=0;entryY=1;entryDx=0;entryDy=0;entryPerimeter=0;exitX=1;exitY=0.5;exitDx=0;exitDy=0;" edge="1" parent="1" source="BicWQHXOOgspfv9MOE1R-31" target="BicWQHXOOgspfv9MOE1R-27">
          <mxGeometry width="50" height="50" relative="1" as="geometry">
            <mxPoint x="910" y="360" as="sourcePoint" />
            <mxPoint x="960" y="310" as="targetPoint" />
          </mxGeometry>
        </mxCell>
        <mxCell id="BicWQHXOOgspfv9MOE1R-33" value="Inimigo atira" style="ellipse;whiteSpace=wrap;html=1;" vertex="1" parent="1">
          <mxGeometry x="640" y="450" width="120" height="80" as="geometry" />
        </mxCell>
        <mxCell id="BicWQHXOOgspfv9MOE1R-34" value="" style="endArrow=none;html=1;rounded=0;entryX=-0.033;entryY=0.6;entryDx=0;entryDy=0;entryPerimeter=0;" edge="1" parent="1" source="BicWQHXOOgspfv9MOE1R-33" target="BicWQHXOOgspfv9MOE1R-31">
          <mxGeometry width="50" height="50" relative="1" as="geometry">
            <mxPoint x="330" y="450" as="sourcePoint" />
            <mxPoint x="380" y="400" as="targetPoint" />
          </mxGeometry>
        </mxCell>
        <mxCell id="BicWQHXOOgspfv9MOE1R-35" value="Inimigo acerta o jogador" style="ellipse;whiteSpace=wrap;html=1;" vertex="1" parent="1">
          <mxGeometry x="530" y="560" width="120" height="80" as="geometry" />
        </mxCell>
        <mxCell id="BicWQHXOOgspfv9MOE1R-36" value="" style="endArrow=none;html=1;rounded=0;entryX=0.092;entryY=0.775;entryDx=0;entryDy=0;entryPerimeter=0;exitX=0.767;exitY=0.063;exitDx=0;exitDy=0;exitPerimeter=0;" edge="1" parent="1" source="BicWQHXOOgspfv9MOE1R-35" target="BicWQHXOOgspfv9MOE1R-33">
          <mxGeometry width="50" height="50" relative="1" as="geometry">
            <mxPoint x="330" y="450" as="sourcePoint" />
            <mxPoint x="380" y="400" as="targetPoint" />
          </mxGeometry>
        </mxCell>
        <mxCell id="BicWQHXOOgspfv9MOE1R-37" value="Decrementa a vida do jogador" style="ellipse;whiteSpace=wrap;html=1;" vertex="1" parent="1">
          <mxGeometry x="390" y="670" width="120" height="80" as="geometry" />
        </mxCell>
        <mxCell id="BicWQHXOOgspfv9MOE1R-39" value="" style="endArrow=none;dashed=1;html=1;dashPattern=1 3;strokeWidth=2;rounded=0;entryX=0;entryY=0.5;entryDx=0;entryDy=0;" edge="1" parent="1" source="BicWQHXOOgspfv9MOE1R-37" target="BicWQHXOOgspfv9MOE1R-35">
          <mxGeometry width="50" height="50" relative="1" as="geometry">
            <mxPoint x="460" y="630" as="sourcePoint" />
            <mxPoint x="510" y="580" as="targetPoint" />
          </mxGeometry>
        </mxCell>
        <mxCell id="BicWQHXOOgspfv9MOE1R-41" value="Jogador morre &lt;br&gt;se não tiver mais vidas" style="ellipse;whiteSpace=wrap;html=1;" vertex="1" parent="1">
          <mxGeometry x="250" y="600" width="120" height="80" as="geometry" />
        </mxCell>
        <mxCell id="BicWQHXOOgspfv9MOE1R-42" value="Inimigo renasce em 10 segundos" style="ellipse;whiteSpace=wrap;html=1;" vertex="1" parent="1">
          <mxGeometry x="740" y="210" width="120" height="80" as="geometry" />
        </mxCell>
        <mxCell id="BicWQHXOOgspfv9MOE1R-45" value="" style="endArrow=none;html=1;rounded=0;entryX=0.742;entryY=1;entryDx=0;entryDy=0;entryPerimeter=0;exitX=0;exitY=0.313;exitDx=0;exitDy=0;exitPerimeter=0;" edge="1" parent="1" source="BicWQHXOOgspfv9MOE1R-42" target="BicWQHXOOgspfv9MOE1R-10">
          <mxGeometry width="50" height="50" relative="1" as="geometry">
            <mxPoint x="640" y="320" as="sourcePoint" />
            <mxPoint x="690" y="270" as="targetPoint" />
          </mxGeometry>
        </mxCell>
        <mxCell id="BicWQHXOOgspfv9MOE1R-46" value="" style="endArrow=none;html=1;rounded=0;entryX=0.65;entryY=1;entryDx=0;entryDy=0;entryPerimeter=0;" edge="1" parent="1" source="BicWQHXOOgspfv9MOE1R-31" target="BicWQHXOOgspfv9MOE1R-42">
          <mxGeometry width="50" height="50" relative="1" as="geometry">
            <mxPoint x="330" y="450" as="sourcePoint" />
            <mxPoint x="380" y="400" as="targetPoint" />
          </mxGeometry>
        </mxCell>
        <mxCell id="BicWQHXOOgspfv9MOE1R-47" value="" style="endArrow=none;html=1;rounded=0;entryX=0.642;entryY=0.988;entryDx=0;entryDy=0;entryPerimeter=0;exitX=0.442;exitY=0;exitDx=0;exitDy=0;exitPerimeter=0;" edge="1" parent="1" source="BicWQHXOOgspfv9MOE1R-48" target="BicWQHXOOgspfv9MOE1R-33">
          <mxGeometry width="50" height="50" relative="1" as="geometry">
            <mxPoint x="700" y="540" as="sourcePoint" />
            <mxPoint x="671" y="482" as="targetPoint" />
          </mxGeometry>
        </mxCell>
        <mxCell id="BicWQHXOOgspfv9MOE1R-48" value="Inimigo erra o &lt;br&gt;jogador" style="ellipse;whiteSpace=wrap;html=1;" vertex="1" parent="1">
          <mxGeometry x="650" y="650" width="120" height="80" as="geometry" />
        </mxCell>
        <mxCell id="BicWQHXOOgspfv9MOE1R-49" value="" style="endArrow=none;html=1;rounded=0;entryX=0.242;entryY=0.05;entryDx=0;entryDy=0;entryPerimeter=0;exitX=1;exitY=0.5;exitDx=0;exitDy=0;" edge="1" parent="1" source="BicWQHXOOgspfv9MOE1R-41" target="BicWQHXOOgspfv9MOE1R-37">
          <mxGeometry width="50" height="50" relative="1" as="geometry">
            <mxPoint x="200" y="640" as="sourcePoint" />
            <mxPoint x="250" y="590" as="targetPoint" />
          </mxGeometry>
        </mxCell>
        <mxCell id="BicWQHXOOgspfv9MOE1R-50" value="Termina jogo" style="ellipse;whiteSpace=wrap;html=1;" vertex="1" parent="1">
          <mxGeometry x="140" y="480" width="120" height="80" as="geometry" />
        </mxCell>
        <mxCell id="BicWQHXOOgspfv9MOE1R-51" value="" style="endArrow=none;html=1;rounded=0;entryX=0.05;entryY=0.325;entryDx=0;entryDy=0;entryPerimeter=0;" edge="1" parent="1" source="BicWQHXOOgspfv9MOE1R-1" target="BicWQHXOOgspfv9MOE1R-50">
          <mxGeometry width="50" height="50" relative="1" as="geometry">
            <mxPoint x="70" y="500" as="sourcePoint" />
            <mxPoint x="120" y="450" as="targetPoint" />
          </mxGeometry>
        </mxCell>
        <mxCell id="BicWQHXOOgspfv9MOE1R-52" value="" style="endArrow=none;html=1;rounded=0;entryX=0.958;entryY=0.8;entryDx=0;entryDy=0;entryPerimeter=0;" edge="1" parent="1" source="BicWQHXOOgspfv9MOE1R-41" target="BicWQHXOOgspfv9MOE1R-50">
          <mxGeometry width="50" height="50" relative="1" as="geometry">
            <mxPoint x="-30" y="550" as="sourcePoint" />
            <mxPoint x="20" y="500" as="targetPoint" />
          </mxGeometry>
        </mxCell>
        <mxCell id="BicWQHXOOgspfv9MOE1R-53" value="Reinicia Jogo" style="ellipse;whiteSpace=wrap;html=1;" vertex="1" parent="1">
          <mxGeometry x="260" y="450" width="120" height="80" as="geometry" />
        </mxCell>
        <mxCell id="BicWQHXOOgspfv9MOE1R-54" value="" style="endArrow=none;html=1;rounded=0;entryX=0.342;entryY=1.05;entryDx=0;entryDy=0;entryPerimeter=0;exitX=0.433;exitY=-0.012;exitDx=0;exitDy=0;exitPerimeter=0;" edge="1" parent="1" source="BicWQHXOOgspfv9MOE1R-41" target="BicWQHXOOgspfv9MOE1R-53">
          <mxGeometry width="50" height="50" relative="1" as="geometry">
            <mxPoint x="300" y="580" as="sourcePoint" />
            <mxPoint x="265" y="554" as="targetPoint" />
          </mxGeometry>
        </mxCell>
        <mxCell id="BicWQHXOOgspfv9MOE1R-55" value="" style="endArrow=none;html=1;rounded=0;entryX=0.5;entryY=1;entryDx=0;entryDy=0;exitX=0.25;exitY=0;exitDx=0;exitDy=0;exitPerimeter=0;" edge="1" parent="1" source="BicWQHXOOgspfv9MOE1R-53" target="BicWQHXOOgspfv9MOE1R-5">
          <mxGeometry width="50" height="50" relative="1" as="geometry">
            <mxPoint x="170" y="450" as="sourcePoint" />
            <mxPoint x="220" y="400" as="targetPoint" />
          </mxGeometry>
        </mxCell>
      </root>
    </mxGraphModel>
  </diagram>
</mxfile>
